<svg width="710" height="478" viewBox="0 0 710 478" fill="none" xmlns="http://www.w3.org/2000/svg">
<g clip-path="url(#clip0)">
<path d="M191.738 11.9773L15.104 52.1095C7.86687 53.7538 3.32777 60.9767 4.96566 68.2422L65.6986 337.647C67.3365 344.913 74.5311 349.47 81.7683 347.826L258.403 307.693C265.64 306.049 270.179 298.826 268.541 291.561L207.808 22.1554C206.17 14.8898 198.976 10.3329 191.738 11.9773Z" fill="#3F3D56"/>
<path d="M22.4039 100.844C25.7176 100.844 28.4039 98.1467 28.4039 94.82C28.4039 91.4933 25.7176 88.7965 22.4039 88.7965C19.0902 88.7965 16.4039 91.4933 16.4039 94.82C16.4039 98.1467 19.0902 100.844 22.4039 100.844Z" fill="white"/>
<path d="M28.4039 122.93C31.7176 122.93 34.4039 120.233 34.4039 116.906C34.4039 113.58 31.7176 110.883 28.4039 110.883C25.0902 110.883 22.4039 113.58 22.4039 116.906C22.4039 120.233 25.0902 122.93 28.4039 122.93Z" fill="white"/>
<path d="M67.4039 284.561C70.7176 284.561 73.4039 281.864 73.4039 278.538C73.4039 275.211 70.7176 272.514 67.4039 272.514C64.0902 272.514 61.4039 275.211 61.4039 278.538C61.4039 281.864 64.0902 284.561 67.4039 284.561Z" fill="white"/>
<path d="M73.4039 306.647C76.7176 306.647 79.4039 303.951 79.4039 300.624C79.4039 297.297 76.7176 294.6 73.4039 294.6C70.0902 294.6 67.4039 297.297 67.4039 300.624C67.4039 303.951 70.0902 306.647 73.4039 306.647Z" fill="white"/>
<path d="M190.993 124.018L69.1968 151.691L73.7909 172.07L195.587 144.397L190.993 124.018Z" fill="#F5F5F5"/>
<path d="M352.629 114.945L149.786 161.031L216.451 456.747L419.293 410.661L352.629 114.945Z" fill="#3291FF"/>
<path d="M566.535 66.3441L363.693 112.431L430.357 408.147L633.2 362.06L566.535 66.3441Z" fill="#3F3D56"/>
<path d="M314.993 157.147L193.197 184.82L197.791 205.199L319.587 177.526L314.993 157.147Z" fill="#F5F5F5"/>
<path d="M346.394 201.785L184 238.681L185.148 243.776L347.543 206.879L346.394 201.785Z" fill="#F5F5F5"/>
<path d="M349.074 213.672L186.68 250.569L187.828 255.664L350.223 218.767L349.074 213.672Z" fill="#F5F5F5"/>
<path d="M351.754 225.56L189.36 262.457L190.508 267.552L352.903 230.655L351.754 225.56Z" fill="#F5F5F5"/>
<path d="M269.854 256.665L192.04 274.344L193.188 279.439L271.002 261.759L269.854 256.665Z" fill="#F5F5F5"/>
<path d="M284.375 265.862L194.719 286.232L195.868 291.327L285.523 270.957L284.375 265.862Z" fill="#F5F5F5"/>
<path d="M359.794 261.223L197.399 298.12L198.548 303.215L360.942 266.318L359.794 261.223Z" fill="#F5F5F5"/>
<path d="M362.474 273.111L200.079 310.008L201.228 315.102L363.622 278.205L362.474 273.111Z" fill="#F5F5F5"/>
<path d="M353.312 287.689L202.759 321.895L203.908 326.99L354.461 292.784L353.312 287.689Z" fill="#F5F5F5"/>
<path d="M367.834 296.886L205.439 333.783L206.587 338.878L368.982 301.981L367.834 296.886Z" fill="#F5F5F5"/>
<path d="M292.699 326.454L208.119 345.671L209.267 350.765L293.848 331.548L292.699 326.454Z" fill="#F5F5F5"/>
<path opacity="0.3" d="M520.746 288.922L431.091 309.292L432.239 314.387L521.895 294.017L520.746 288.922Z" fill="#3291FF"/>
<path opacity="0.3" d="M596.166 284.283L433.771 321.18L434.919 326.275L597.314 289.378L596.166 284.283Z" fill="#3291FF"/>
<path opacity="0.3" d="M598.845 296.171L436.451 333.068L437.599 338.162L599.994 301.266L598.845 296.171Z" fill="#3291FF"/>
<path opacity="0.3" d="M589.684 310.749L439.131 344.955L440.279 350.05L590.832 315.844L589.684 310.749Z" fill="#3291FF"/>
<path opacity="0.3" d="M604.205 319.946L441.811 356.843L442.959 361.938L605.354 325.041L604.205 319.946Z" fill="#3291FF"/>
<path d="M371.724 329.921L273.611 352.213L288.925 420.143L387.038 397.851L371.724 329.921Z" fill="#F5F5F5"/>
<path opacity="0.3" d="M487.858 103.59L389.744 125.882L405.058 193.812L503.171 171.52L487.858 103.59Z" fill="#3291FF"/>
<path opacity="0.3" d="M583.888 174.603L485.774 196.895L501.088 264.825L599.201 242.533L583.888 174.603Z" fill="#3291FF"/>
<path d="M629.738 139.475L453.104 179.608C445.867 181.252 441.328 188.475 442.966 195.74L503.699 465.145C505.336 472.411 512.531 476.968 519.768 475.324L696.403 435.191C703.64 433.547 708.179 426.324 706.541 419.059L645.808 149.653C644.17 142.388 636.976 137.831 629.738 139.475Z" fill="#3291FF"/>
<path d="M460.404 228.342C463.718 228.342 466.404 225.645 466.404 222.318C466.404 218.991 463.718 216.295 460.404 216.295C457.09 216.295 454.404 218.991 454.404 222.318C454.404 225.645 457.09 228.342 460.404 228.342Z" fill="white"/>
<path d="M466.404 250.428C469.718 250.428 472.404 247.731 472.404 244.404C472.404 241.078 469.718 238.381 466.404 238.381C463.09 238.381 460.404 241.078 460.404 244.404C460.404 247.731 463.09 250.428 466.404 250.428Z" fill="white"/>
<path d="M505.404 412.059C508.718 412.059 511.404 409.362 511.404 406.036C511.404 402.709 508.718 400.012 505.404 400.012C502.09 400.012 499.404 402.709 499.404 406.036C499.404 409.362 502.09 412.059 505.404 412.059Z" fill="white"/>
<path d="M511.404 434.145C514.718 434.145 517.404 431.449 517.404 428.122C517.404 424.795 514.718 422.098 511.404 422.098C508.09 422.098 505.404 424.795 505.404 428.122C505.404 431.449 508.09 434.145 511.404 434.145Z" fill="white"/>
<path d="M628.993 251.516L507.197 279.189L511.791 299.568L633.587 271.895L628.993 251.516Z" fill="#F5F5F5"/>
</g>
<defs>
<clipPath id="clip0">
<rect width="710" height="478" fill="white"/>
</clipPath>
</defs>
</svg>
