<svg width="941" height="827" viewBox="0 0 941 827" fill="none" xmlns="http://www.w3.org/2000/svg">
<path d="M436.219 60.2065H434.521V57.7672H435.795C436.02 57.7671 436.236 57.6937 436.395 57.563C436.554 57.4323 436.643 57.255 436.643 57.0702V44.5245C436.643 44.3396 436.554 44.1624 436.395 44.0317C436.236 43.9009 436.02 43.8275 435.795 43.8275H434.521V36.7027C434.521 34.7094 434.043 32.7356 433.114 30.8941C432.185 29.0525 430.823 27.3793 429.106 25.9698C427.389 24.5603 425.351 23.4423 423.108 22.6795C420.865 21.9167 418.461 21.5241 416.033 21.5241H414.146V19.7817C414.146 19.5968 414.057 19.4196 413.898 19.2889C413.739 19.1581 413.523 19.0847 413.298 19.0847H398.016C397.791 19.0847 397.575 19.1581 397.416 19.2889C397.257 19.4196 397.168 19.5968 397.168 19.7817V21.5241H121.072C118.644 21.5241 116.24 21.9167 113.997 22.6795C111.754 23.4423 109.716 24.5603 107.999 25.9698C106.282 27.3793 104.921 29.0525 103.992 30.8941C103.062 32.7356 102.584 34.7094 102.584 36.7027V359.715C102.584 361.708 103.062 363.682 103.992 365.523C104.921 367.365 106.282 369.038 107.999 370.447C109.716 371.857 111.754 372.975 113.997 373.738C116.24 374.5 118.644 374.893 121.072 374.893H416.033C418.461 374.893 420.865 374.5 423.108 373.738C425.351 372.975 427.389 371.857 429.106 370.447C430.823 369.038 432.185 367.365 433.114 365.523C434.043 363.682 434.521 361.708 434.521 359.715V74.1461H436.219C436.444 74.1461 436.66 74.0727 436.819 73.942C436.978 73.8113 437.068 73.634 437.068 73.4492V60.9035C437.068 60.7187 436.978 60.5414 436.819 60.4107C436.66 60.28 436.444 60.2065 436.219 60.2065Z" fill="#3F3D56"/>
<path d="M421.789 31.4524H117.864V362.525H421.789V31.4524Z" fill="white"/>
<path d="M816.763 129.227H814.883V86.9571C814.883 83.7443 814.112 80.5631 812.615 77.5949C811.117 74.6267 808.922 71.9297 806.155 69.6579C803.388 67.3862 800.103 65.5841 796.488 64.3547C792.873 63.1252 788.998 62.4924 785.084 62.4924H676.005C672.091 62.4924 668.216 63.1252 664.601 64.3547C660.986 65.5841 657.701 67.3862 654.934 69.6579C652.167 71.9297 649.972 74.6267 648.474 77.5949C646.977 80.5631 646.206 83.7443 646.206 86.9571V318.853C646.206 322.066 646.977 325.247 648.474 328.215C649.972 331.183 652.167 333.88 654.934 336.152C657.701 338.424 660.986 340.226 664.601 341.455C668.216 342.685 672.091 343.317 676.005 343.317H785.084C788.998 343.317 792.873 342.685 796.488 341.455C800.103 340.226 803.388 338.424 806.155 336.152C808.922 333.88 811.117 331.183 812.615 328.215C814.112 325.247 814.883 322.066 814.883 318.853V159.315H816.763V129.227Z" fill="#3F3D56"/>
<path d="M808.537 88.3951V319.953C808.538 324.798 806.195 329.446 802.022 332.873C797.849 336.3 792.189 338.225 786.287 338.226H676.681C670.779 338.225 665.119 336.3 660.946 332.873C656.773 329.446 654.43 324.798 654.431 319.953V88.3951C654.431 83.5505 656.776 78.9045 660.948 75.4788C665.121 72.0532 670.78 70.1284 676.681 70.1279H689.979C689.324 71.4458 689.075 72.8756 689.252 74.2914C689.429 75.7071 690.027 77.0654 690.995 78.2465C691.962 79.4276 693.268 80.3953 694.798 81.0644C696.328 81.7335 698.035 82.0834 699.768 82.0833H762.259C763.993 82.0834 765.7 81.7335 767.23 81.0645C768.76 80.3954 770.066 79.4276 771.033 78.2465C772 77.0654 772.599 75.7071 772.776 74.2914C772.953 72.8756 772.704 71.4458 772.049 70.1279H786.287C792.188 70.1284 797.847 72.0532 802.02 75.4788C806.192 78.9045 808.537 83.5505 808.537 88.3951V88.3951Z" fill="white"/>
<path d="M792.468 100.915H699.865V103.74H792.468V100.915Z" fill="#3F3D56"/>
<path d="M792.468 109.861H699.865V112.686H792.468V109.861Z" fill="#3F3D56"/>
<path d="M792.468 118.807H699.865V121.632H792.468V118.807Z" fill="#3F3D56"/>
<path d="M691.481 102.661H670.5V119.886H691.481V102.661Z" fill="#3F3D56"/>
<path d="M792.468 301.867H699.865V304.692H792.468V301.867Z" fill="#3F3D56"/>
<path d="M792.468 310.813H699.865V313.638H792.468V310.813Z" fill="#3F3D56"/>
<path d="M792.468 319.759H699.865V322.584H792.468V319.759Z" fill="#3F3D56"/>
<path d="M691.481 303.613H670.5V320.838H691.481V303.613Z" fill="#3F3D56"/>
<path d="M782.581 413.289H519.242V408.833H399.834V413.289H135.41C133.071 413.289 130.755 413.667 128.594 414.402C126.432 415.137 124.469 416.214 122.815 417.572C121.161 418.93 119.849 420.543 118.953 422.317C118.058 424.091 117.597 425.993 117.597 427.913V723.958C117.597 727.836 119.474 731.556 122.815 734.299C126.155 737.041 130.686 738.582 135.41 738.582H782.581C787.305 738.582 791.836 737.041 795.177 734.299C798.517 731.556 800.394 727.836 800.394 723.958V427.913C800.394 425.993 799.933 424.091 799.038 422.317C798.143 420.543 796.831 418.93 795.177 417.572C793.523 416.214 791.559 415.137 789.398 414.402C787.236 413.667 784.92 413.289 782.581 413.289V413.289Z" fill="#3F3D56"/>
<path d="M776.512 439.135H141.479V733.236H776.512V439.135Z" fill="white"/>
<path d="M458.453 431.114C462.05 431.114 464.966 428.72 464.966 425.767C464.966 422.813 462.05 420.419 458.453 420.419C454.856 420.419 451.94 422.813 451.94 425.767C451.94 428.72 454.856 431.114 458.453 431.114Z" fill="#3291FF"/>
<path d="M818.224 727.888H756.249V724.222C756.249 724.127 756.226 724.032 756.181 723.944C756.137 723.856 756.072 723.776 755.99 723.708C755.907 723.641 755.81 723.587 755.702 723.551C755.595 723.514 755.48 723.495 755.363 723.495H734.115C733.999 723.495 733.884 723.514 733.776 723.551C733.669 723.587 733.571 723.641 733.489 723.708C733.407 723.776 733.341 723.856 733.297 723.944C733.252 724.032 733.23 724.127 733.23 724.222V727.888H719.949V724.222C719.949 724.127 719.926 724.032 719.882 723.944C719.837 723.856 719.772 723.776 719.69 723.708C719.608 723.641 719.51 723.587 719.403 723.551C719.295 723.514 719.18 723.495 719.064 723.495H697.815C697.699 723.495 697.584 723.514 697.476 723.551C697.369 723.587 697.271 723.641 697.189 723.708C697.107 723.776 697.042 723.856 696.997 723.944C696.953 724.032 696.93 724.127 696.93 724.222V727.888H683.649V724.222C683.649 724.127 683.626 724.032 683.582 723.944C683.538 723.856 683.472 723.776 683.39 723.708C683.308 723.641 683.21 723.587 683.103 723.551C682.995 723.514 682.88 723.495 682.764 723.495H661.515C661.399 723.495 661.284 723.514 661.177 723.551C661.069 723.587 660.972 723.641 660.889 723.708C660.807 723.776 660.742 723.856 660.697 723.944C660.653 724.032 660.63 724.127 660.63 724.222V727.888H647.35V724.222C647.35 724.127 647.327 724.032 647.282 723.944C647.238 723.856 647.173 723.776 647.09 723.708C647.008 723.641 646.911 723.587 646.803 723.551C646.696 723.514 646.581 723.495 646.464 723.495H625.216C625.1 723.495 624.984 723.514 624.877 723.551C624.77 723.587 624.672 723.641 624.59 723.708C624.508 723.776 624.442 723.856 624.398 723.944C624.353 724.032 624.33 724.127 624.33 724.222V727.888H611.05V724.222C611.05 724.127 611.027 724.032 610.983 723.944C610.938 723.856 610.873 723.776 610.791 723.708C610.708 723.641 610.611 723.587 610.503 723.551C610.396 723.514 610.281 723.495 610.165 723.495H588.916C588.8 723.495 588.685 723.514 588.577 723.551C588.47 723.587 588.372 723.641 588.29 723.708C588.208 723.776 588.143 723.856 588.098 723.944C588.054 724.032 588.031 724.127 588.031 724.222V727.888H574.75V724.222C574.75 724.127 574.727 724.032 574.683 723.944C574.638 723.856 574.573 723.776 574.491 723.708C574.409 723.641 574.311 723.587 574.204 723.551C574.096 723.514 573.981 723.495 573.865 723.495H552.616C552.5 723.495 552.385 723.514 552.277 723.551C552.17 723.587 552.072 723.641 551.99 723.708C551.908 723.776 551.843 723.856 551.798 723.944C551.754 724.032 551.731 724.127 551.731 724.222V727.888H538.451V724.222C538.451 724.127 538.428 724.032 538.383 723.944C538.339 723.856 538.274 723.776 538.191 723.708C538.109 723.641 538.011 723.587 537.904 723.551C537.797 723.514 537.682 723.495 537.565 723.495H371.118C371.002 723.495 370.886 723.514 370.779 723.551C370.672 723.587 370.574 723.641 370.492 723.708C370.41 723.776 370.344 723.856 370.3 723.944C370.255 724.032 370.232 724.127 370.232 724.222V727.888H356.952V724.222C356.952 724.127 356.929 724.032 356.885 723.944C356.84 723.856 356.775 723.776 356.693 723.708C356.611 723.641 356.513 723.587 356.406 723.551C356.298 723.514 356.183 723.495 356.067 723.495H334.818C334.702 723.495 334.587 723.514 334.479 723.551C334.372 723.587 334.274 723.641 334.192 723.708C334.11 723.776 334.045 723.856 334 723.944C333.956 724.032 333.933 724.127 333.933 724.222V727.888H320.652V724.222C320.652 724.127 320.629 724.032 320.585 723.944C320.54 723.856 320.475 723.776 320.393 723.708C320.311 723.641 320.213 723.587 320.106 723.551C319.998 723.514 319.883 723.495 319.767 723.495H298.518C298.402 723.495 298.287 723.514 298.18 723.551C298.072 723.587 297.975 723.641 297.892 723.708C297.81 723.776 297.745 723.856 297.7 723.944C297.656 724.032 297.633 724.127 297.633 724.222V727.888H284.353V724.222C284.353 724.127 284.33 724.032 284.285 723.944C284.241 723.856 284.176 723.776 284.093 723.708C284.011 723.641 283.914 723.587 283.806 723.551C283.699 723.514 283.584 723.495 283.467 723.495H262.219C262.102 723.495 261.987 723.514 261.88 723.551C261.772 723.587 261.675 723.641 261.593 723.708C261.51 723.776 261.445 723.856 261.401 723.944C261.356 724.032 261.333 724.127 261.333 724.222V727.888H248.053V724.222C248.053 724.127 248.03 724.032 247.986 723.944C247.941 723.856 247.876 723.776 247.794 723.708C247.711 723.641 247.614 723.587 247.506 723.551C247.399 723.514 247.284 723.495 247.168 723.495H225.919C225.803 723.495 225.688 723.514 225.58 723.551C225.473 723.587 225.375 723.641 225.293 723.708C225.211 723.776 225.145 723.856 225.101 723.944C225.057 724.032 225.034 724.127 225.034 724.222V727.888H211.753V724.222C211.753 724.127 211.73 724.032 211.686 723.944C211.641 723.856 211.576 723.776 211.494 723.708C211.412 723.641 211.314 723.587 211.207 723.551C211.099 723.514 210.984 723.495 210.868 723.495H189.619C189.503 723.495 189.388 723.514 189.28 723.551C189.173 723.587 189.075 723.641 188.993 723.708C188.911 723.776 188.846 723.856 188.801 723.944C188.757 724.032 188.734 724.127 188.734 724.222V727.888H175.454V724.222C175.454 724.127 175.431 724.032 175.386 723.944C175.342 723.856 175.276 723.776 175.194 723.708C175.112 723.641 175.014 723.587 174.907 723.551C174.8 723.514 174.684 723.495 174.568 723.495H153.32C153.203 723.495 153.088 723.514 152.981 723.551C152.873 723.587 152.776 723.641 152.693 723.708C152.611 723.776 152.546 723.856 152.502 723.944C152.457 724.032 152.434 724.127 152.434 724.222V727.888H111.708C106.072 727.888 100.668 729.726 96.6827 732.998C92.6978 736.269 90.4591 740.707 90.4591 745.333V753.222C90.4591 757.848 92.6978 762.285 96.6827 765.557C100.668 768.829 106.072 770.667 111.708 770.667H818.224C823.859 770.667 829.264 768.829 833.249 765.557C837.234 762.285 839.473 757.848 839.473 753.222V745.333C839.473 743.042 838.923 740.774 837.855 738.657C836.787 736.541 835.222 734.618 833.249 732.998C831.276 731.378 828.934 730.093 826.356 729.216C823.778 728.339 821.014 727.888 818.224 727.888V727.888Z" fill="#3F3D56"/>
<path d="M575.819 462.169H397.619V467.605H575.819V462.169Z" fill="white"/>
<path d="M575.819 479.384H397.619V484.82H575.819V479.384Z" fill="white"/>
<path d="M575.819 496.598H397.619V502.035H575.819V496.598Z" fill="white"/>
<path d="M575.819 462.169H397.619V467.605H575.819V462.169Z" fill="#3F3D56"/>
<path d="M575.819 479.384H397.619V484.82H575.819V479.384Z" fill="#3F3D56"/>
<path d="M575.819 496.598H397.619V502.035H575.819V496.598Z" fill="#3F3D56"/>
<path d="M381.484 465.528H341.111V498.675H381.484V465.528Z" fill="#3F3D56"/>
<path d="M575.819 655.869H397.619V661.305H575.819V655.869Z" fill="#3F3D56"/>
<path d="M575.819 673.084H397.619V678.521H575.819V673.084Z" fill="#3F3D56"/>
<path d="M575.819 690.299H397.619V695.735H575.819V690.299Z" fill="#3F3D56"/>
<path d="M381.484 659.229H341.111V692.376H381.484V659.229Z" fill="#3F3D56"/>
<path d="M889.022 339.206C878.554 329.844 864.466 323.741 849.145 321.93L855.704 317.066L848.449 316.765L839.472 323.426L847.586 330.795L854.841 331.096L849.405 326.161C864.859 328.21 878.808 334.962 888.471 345.074C898.135 355.185 902.806 367.914 901.554 380.725C900.301 393.537 893.218 405.491 881.713 414.208C870.209 422.924 855.128 427.764 839.473 427.763V431.906C852.55 431.906 865.344 428.779 876.293 422.908C887.241 417.036 895.87 408.674 901.125 398.842C906.38 389.011 908.034 378.136 905.884 367.545C903.735 356.955 897.876 347.107 889.022 339.206V339.206Z" fill="#3F3D56"/>
<path d="M17.7781 339.206C28.246 329.844 42.3335 323.741 57.6544 321.93L51.0959 317.066L58.3513 316.765L67.3276 323.426L59.2143 330.795L51.9588 331.096L57.3951 326.161C41.9403 328.21 27.9923 334.962 18.3285 345.074C8.6646 355.185 3.99383 367.914 5.24622 380.725C6.4986 393.537 13.5823 405.491 25.0867 414.208C36.5911 422.924 51.6723 427.764 67.3272 427.763V431.906C54.2498 431.906 41.4556 428.779 30.5072 422.908C19.5588 417.036 10.9302 408.674 5.67516 398.842C0.420166 389.011 -1.2337 378.136 0.915581 367.545C3.06486 356.955 8.92425 347.107 17.7781 339.206V339.206Z" fill="#3F3D56"/>
<path d="M387.18 47.8357H208.981V53.272H387.18V47.8357Z" fill="#3F3D56"/>
<path d="M387.18 65.0505H208.981V70.4868H387.18V65.0505Z" fill="#3F3D56"/>
<path d="M387.18 82.2656H208.981V87.7019H387.18V82.2656Z" fill="#3F3D56"/>
<path d="M192.846 51.1956H152.472V84.3422H192.846V51.1956Z" fill="#3F3D56"/>
<path d="M386.567 305.758H208.368V311.194H386.567V305.758Z" fill="#3F3D56"/>
<path d="M386.567 322.973H208.368V328.409H386.567V322.973Z" fill="#3F3D56"/>
<path d="M386.567 340.188H208.368V345.624H386.567V340.188Z" fill="#3F3D56"/>
<path d="M192.233 309.118H151.859V342.264H192.233V309.118Z" fill="#3F3D56"/>
<path d="M197.108 224.071C213.736 224.071 227.216 213.004 227.216 199.352C227.216 185.7 213.736 174.633 197.108 174.633C180.48 174.633 167 185.7 167 199.352C167 213.004 180.48 224.071 197.108 224.071Z" fill="#3291FF"/>
<path d="M277.396 219.551C290.984 219.551 301.999 210.507 301.999 199.352C301.999 188.197 290.984 179.153 277.396 179.153C263.809 179.153 252.794 188.197 252.794 199.352C252.794 210.507 263.809 219.551 277.396 219.551Z" fill="#3291FF"/>
<path d="M357.684 211.641C365.951 211.641 372.652 206.139 372.652 199.352C372.652 192.565 365.951 187.063 357.684 187.063C349.418 187.063 342.716 192.565 342.716 199.352C342.716 206.139 349.418 211.641 357.684 211.641Z" fill="#3291FF"/>
<path d="M693.091 215.434C701.826 215.434 708.908 209.62 708.908 202.448C708.908 195.276 701.826 189.462 693.091 189.462C684.355 189.462 677.274 195.276 677.274 202.448C677.274 209.62 684.355 215.434 693.091 215.434Z" fill="#3291FF"/>
<path d="M735.269 212.772C742.214 212.772 747.845 208.15 747.845 202.448C747.845 196.746 742.214 192.124 735.269 192.124C728.324 192.124 722.694 196.746 722.694 202.448C722.694 208.15 728.324 212.772 735.269 212.772Z" fill="#3291FF"/>
<path d="M777.448 209.219C782.003 209.219 785.695 206.187 785.695 202.448C785.695 198.709 782.003 195.677 777.448 195.677C772.893 195.677 769.201 198.709 769.201 202.448C769.201 206.187 772.893 209.219 777.448 209.219Z" fill="#3291FF"/>
<path d="M458.447 634.402C497.468 634.402 529.101 608.431 529.101 576.395C529.101 544.359 497.468 518.388 458.447 518.388C419.426 518.388 387.793 544.359 387.793 576.395C387.793 608.431 419.426 634.402 458.447 634.402Z" fill="#3291FF"/>
<path d="M484.732 589.152L458.378 545.452L432.161 589.208L446.975 589.192V607.338H469.906V589.168L484.732 589.152Z" fill="white"/>
</svg>
