<svg width="1920" height="750" viewBox="0 0 1920 750" fill="none" xmlns="http://www.w3.org/2000/svg">
<g clip-path="url(#clip0)">
<rect width="1920" height="750" fill="white"/>
<path d="M-61 65.4999C-61 65.4999 144.695 144.285 278.635 65.4999C308.643 47.8489 379.091 -10.7439 550.768 33.6162C594.412 44.8933 703.312 126.957 853.729 57.5669C890.054 40.8098 945.149 -19.0614 1081.75 29.8085C1127.8 46.2853 1267.24 116.791 1379.92 60.9621C1424.12 39.063 1489.95 -16.982 1633.46 38.2432C1776.96 93.4685 1980 65.4999 1980 65.4999V713.341C1980 713.341 1814.17 770.499 1633.46 699.363C1452.74 628.227 1436.64 704.84 1379.92 721.106C1226.85 765.004 1114.08 706.597 1081.75 683.305C990.328 617.456 890.977 694.337 853.729 710.044C698.528 775.492 599.659 694.909 550.768 680.454C353.578 622.152 315.231 695.483 278.635 713.341C109.615 795.823 -61 713.341 -61 713.341V65.4999Z" fill="#E9F5FD"/>
</g>
<defs>
<clipPath id="clip0">
<rect width="1920" height="750" fill="white"/>
</clipPath>
</defs>
</svg>
